# xmcd CD database file
#
# Track frame offsets:
#	150
#	17412
#	37950
#	55210
#
# Disc length: 1007 seconds
#
# Revision: 6
# Processed by: cddbd v1.5.2PL0 Copyright (c) Steve Scherf et al.
# Submitted via: CDex 1.70beta2
#
DISCID=2403ed04
DTITLE=F･MAP／Men's 5 - みどりのマキバオー
DYEAR=1996
DGENRE=Anime
TTITLE0=走れマキバオー
TTITLE1=とってもウマナミ
TTITLE2=走れマキバオー［オリジナル･カラオケ］
TTITLE3=とってもウマナミ［オリジナル･カラオケ］
EXTD=Bakuretsu Hunter OAV OP/ED CD Single\nKIDA-142 YEAR: 1996
EXTT0=
EXTT1=
EXTT2=
EXTT3=
PLAYORDER=
